<?xml version="1.0" encoding="UTF-8" standalone="no"?>
<svg
   xmlns:dc="http://purl.org/dc/elements/1.1/"
   xmlns:cc="http://creativecommons.org/ns#"
   xmlns:rdf="http://www.w3.org/1999/02/22-rdf-syntax-ns#"
   xmlns:svg="http://www.w3.org/2000/svg"
   xmlns="http://www.w3.org/2000/svg"
   xmlns:sodipodi="http://sodipodi.sourceforge.net/DTD/sodipodi-0.dtd"
   xmlns:inkscape="http://www.inkscape.org/namespaces/inkscape"
   width="16"
   height="16"
   fill="currentColor"
   class="bi bi-people-fill"
   viewBox="0 0 16 16"
   version="1.1"
   id="svg8"
   sodipodi:docname="recitation.svg"
   inkscape:version="0.92.3 (2405546, 2018-03-11)">
  <metadata
     id="metadata14">
    <rdf:RDF>
      <cc:Work
         rdf:about="">
        <dc:format>image/svg+xml</dc:format>
        <dc:type
           rdf:resource="http://purl.org/dc/dcmitype/StillImage" />
      </cc:Work>
    </rdf:RDF>
  </metadata>
  <defs
     id="defs12" />
  <sodipodi:namedview
     pagecolor="#ffffff"
     bordercolor="#666666"
     borderopacity="1"
     objecttolerance="10"
     gridtolerance="10"
     guidetolerance="10"
     inkscape:pageopacity="0"
     inkscape:pageshadow="2"
     inkscape:window-width="1140"
     inkscape:window-height="886"
     id="namedview10"
     showgrid="false"
     inkscape:zoom="10.429825"
     inkscape:cx="14.447644"
     inkscape:cy="12.241994"
     inkscape:window-x="0"
     inkscape:window-y="28"
     inkscape:window-maximized="0"
     inkscape:current-layer="svg8" />
  <path
     style="fill:#e5b866;fill-opacity:1"
     d="M 11 8 A 3 3 0 1 0 11 2 A 3 3 0 0 0 11 8 z "
     id="path831" />
  <path
     style="fill:#b078ad;fill-opacity:1"
     d="M 7 14 C 7 14 6 14 6 13 C 6 12 7 9 11 9 C 15 9 16 12 16 13 C 16 14 15 14 15 14 L 7 14 z "
     id="path2" />
  <path
     fill-rule="evenodd"
     d="M5.216 14A2.238 2.238 0 0 1 5 13c0-1.355.68-2.75 1.936-3.72A6.325 6.325 0 0 0 5 9c-4 0-5 3-5 4s1 1 1 1h4.216z"
     id="path4"
     style="fill:#204a87" />
  <path
     d="M4.5 8a2.5 2.5 0 1 0 0-5 2.5 2.5 0 0 0 0 5z"
     id="path6"
     style="fill:#8f5902;fill-opacity:1" />
</svg>
