<?xml version="1.0" encoding="UTF-8" standalone="no"?>
<svg
   xmlns:dc="http://purl.org/dc/elements/1.1/"
   xmlns:cc="http://creativecommons.org/ns#"
   xmlns:rdf="http://www.w3.org/1999/02/22-rdf-syntax-ns#"
   xmlns:svg="http://www.w3.org/2000/svg"
   xmlns="http://www.w3.org/2000/svg"
   id="svg8"
   version="1.1"
   viewBox="0 0 512 512"
   class="ionicon">
  <metadata
     id="metadata14">
    <rdf:RDF>
      <cc:Work
         rdf:about="">
        <dc:format>image/svg+xml</dc:format>
        <dc:type
           rdf:resource="http://purl.org/dc/dcmitype/StillImage" />
        <dc:title>Easel</dc:title>
      </cc:Work>
    </rdf:RDF>
  </metadata>
  <defs
     id="defs12" />
  <title
     id="title2">Easel</title>
  <rect
     id="rect4"
     ry="12"
     rx="12"
     height="208"
     width="352"
     y="112"
     x="80" />
  <path
     style="fill:#8f5902"
     id="path823"
     d="M 432,64 H 272 V 48 a 16,16 0 0 0 -32,0 V 64 H 80 a 48.05,48.05 0 0 0 -48,48 v 208 a 48.05,48.05 0 0 0 48,48 h 42.79 l -26.17,91.6 a 16,16 0 1 0 30.76,8.8 L 156.07,368 H 240 v 48 a 16,16 0 0 0 32,0 v -48 h 83.93 l 28.69,100.4 a 16,16 0 1 0 30.76,-8.8 L 389.21,368 H 432 a 48.05,48.05 0 0 0 48,-48 V 112 A 48.05,48.05 0 0 0 432,64 Z" />
  <path
     style="fill:#2e3436"
     id="path6"
     d="m 448,320 a 16,16 0 0 1 -16,16 H 80 A 16,16 0 0 1 64,320 V 112 A 16,16 0 0 1 80,96 h 352 a 16,16 0 0 1 16,16 z" />
</svg>
